<?xml version="1.0" encoding="UTF-8" standalone="no"?>
<!DOCTYPE svg PUBLIC "-//W3C//DTD SVG 1.1//EN"
 "http://www.w3.org/Graphics/SVG/1.1/DTD/svg11.dtd">
<!-- Generated by graphviz version 11.0.0 (20240428.1522)
 -->
<!-- Pages: 1 -->
<svg width="176pt" height="395pt"
 viewBox="0.00 0.00 176.11 395.00" xmlns="http://www.w3.org/2000/svg" xmlns:xlink="http://www.w3.org/1999/xlink">
<g id="graph0" class="graph" transform="scale(1 1) rotate(0) translate(4 391)">
<polygon fill="white" stroke="none" points="-4,4 -4,-391 172.11,-391 172.11,4 -4,4"/>
<!-- 0 -->
<g id="node1" class="node">
<title>0</title>
<ellipse fill="none" stroke="black" cx="108.36" cy="-369" rx="27" ry="18"/>
<text text-anchor="middle" x="108.36" y="-363.57" font-family="Times New Roman,serif" font-size="14.00">0</text>
</g>
<!-- 1 -->
<g id="node2" class="node">
<title>1</title>
<ellipse fill="none" stroke="black" cx="55.36" cy="-281.25" rx="27" ry="18"/>
<text text-anchor="middle" x="55.36" y="-275.82" font-family="Times New Roman,serif" font-size="14.00">1</text>
</g>
<!-- 0&#45;&gt;1 -->
<g id="edge1" class="edge">
<title>0&#45;&gt;1</title>
<path fill="none" stroke="black" d="M98.39,-351.87C90.77,-339.53 80.1,-322.28 71.3,-308.03"/>
<polygon fill="black" stroke="black" points="74.31,-306.26 66.08,-299.59 68.36,-309.94 74.31,-306.26"/>
<text text-anchor="middle" x="91.98" y="-319.7" font-family="Times New Roman,serif" font-size="14.00">&#45;1</text>
</g>
<!-- 2 -->
<g id="node3" class="node">
<title>2</title>
<ellipse fill="none" stroke="black" cx="55.36" cy="-18" rx="27" ry="18"/>
<text text-anchor="middle" x="55.36" y="-12.57" font-family="Times New Roman,serif" font-size="14.00">2</text>
</g>
<!-- 0&#45;&gt;2 -->
<g id="edge2" class="edge">
<title>0&#45;&gt;2</title>
<path fill="none" stroke="black" d="M123.97,-353.86C139.61,-338.07 161.36,-310.95 161.36,-282.25 161.36,-282.25 161.36,-282.25 161.36,-104.75 161.36,-67.38 121.04,-43.49 90.14,-30.66"/>
<polygon fill="black" stroke="black" points="91.68,-27.51 81.09,-27.14 89.13,-34.03 91.68,-27.51"/>
<text text-anchor="middle" x="164.73" y="-188.07" font-family="Times New Roman,serif" font-size="14.00">4</text>
</g>
<!-- 1&#45;&gt;2 -->
<g id="edge3" class="edge">
<title>1&#45;&gt;2</title>
<path fill="none" stroke="black" d="M37.03,-267.67C29.42,-261.65 21.05,-253.87 15.36,-245.25 6.67,-232.08 6.83,-227.08 4.36,-211.5 -4.33,-156.78 0.91,-139.99 19.36,-87.75 24.58,-72.96 32.5,-57.41 39.58,-44.84"/>
<polygon fill="black" stroke="black" points="42.5,-46.78 44.49,-36.38 36.44,-43.27 42.5,-46.78"/>
<text text-anchor="middle" x="5.73" y="-144.2" font-family="Times New Roman,serif" font-size="14.00">3</text>
</g>
<!-- 3 -->
<g id="node4" class="node">
<title>3</title>
<ellipse fill="none" stroke="black" cx="55.36" cy="-105.75" rx="27" ry="18"/>
<text text-anchor="middle" x="55.36" y="-100.33" font-family="Times New Roman,serif" font-size="14.00">3</text>
</g>
<!-- 1&#45;&gt;3 -->
<g id="edge4" class="edge">
<title>1&#45;&gt;3</title>
<path fill="none" stroke="black" d="M42.42,-265.08C32.08,-251.89 18.4,-231.77 12.61,-211.5 8.22,-196.11 8.22,-190.89 12.61,-175.5 17.18,-159.5 26.66,-143.6 35.54,-131.13"/>
<polygon fill="black" stroke="black" points="38.33,-133.24 41.51,-123.14 32.72,-129.05 38.33,-133.24"/>
<text text-anchor="middle" x="15.73" y="-188.07" font-family="Times New Roman,serif" font-size="14.00">2</text>
</g>
<!-- 4 -->
<g id="node5" class="node">
<title>4</title>
<ellipse fill="none" stroke="black" cx="55.36" cy="-193.5" rx="27" ry="18"/>
<text text-anchor="middle" x="55.36" y="-188.07" font-family="Times New Roman,serif" font-size="14.00">4</text>
</g>
<!-- 1&#45;&gt;4 -->
<g id="edge5" class="edge">
<title>1&#45;&gt;4</title>
<path fill="none" stroke="black" d="M55.36,-262.9C55.36,-251.51 55.36,-236.34 55.36,-223.18"/>
<polygon fill="black" stroke="black" points="58.86,-223.34 55.36,-213.34 51.86,-223.34 58.86,-223.34"/>
<text text-anchor="middle" x="58.73" y="-231.95" font-family="Times New Roman,serif" font-size="14.00">2</text>
</g>
<!-- 3&#45;&gt;1 -->
<g id="edge7" class="edge">
<title>3&#45;&gt;1</title>
<path fill="none" stroke="black" d="M66.46,-122.52C75.16,-135.91 86.56,-156.01 91.36,-175.5 95.18,-191.04 95.18,-195.96 91.36,-211.5 87.61,-226.73 79.83,-242.32 72.46,-254.8"/>
<polygon fill="black" stroke="black" points="69.55,-252.85 67.25,-263.19 75.5,-256.54 69.55,-252.85"/>
<text text-anchor="middle" x="96.73" y="-188.07" font-family="Times New Roman,serif" font-size="14.00">1</text>
</g>
<!-- 3&#45;&gt;2 -->
<g id="edge6" class="edge">
<title>3&#45;&gt;2</title>
<path fill="none" stroke="black" d="M55.36,-87.4C55.36,-76.01 55.36,-60.84 55.36,-47.68"/>
<polygon fill="black" stroke="black" points="58.86,-47.84 55.36,-37.84 51.86,-47.84 58.86,-47.84"/>
<text text-anchor="middle" x="58.73" y="-56.45" font-family="Times New Roman,serif" font-size="14.00">5</text>
</g>
<!-- 4&#45;&gt;3 -->
<g id="edge8" class="edge">
<title>4&#45;&gt;3</title>
<path fill="none" stroke="black" d="M55.36,-175.15C55.36,-163.76 55.36,-148.59 55.36,-135.43"/>
<polygon fill="black" stroke="black" points="58.86,-135.59 55.36,-125.59 51.86,-135.59 58.86,-135.59"/>
<text text-anchor="middle" x="60.98" y="-144.2" font-family="Times New Roman,serif" font-size="14.00">&#45;3</text>
</g>
</g>
</svg>
